<svg xmlns="http://www.w3.org/2000/svg" width="246" height="96" fill="none"><g filter="url(#a)"><path fill-rule="evenodd" clip-rule="evenodd" d="M30 3c-8.284 0-15 6.716-15 15v2.417a4 4 0 0 1-2.375 3.655l-9.031 4.014c-.792.352-.792 1.476 0 1.828l9.03 4.014A4 4 0 0 1 15 37.583V78c0 8.284 6.716 15 15 15h198c8.284 0 15-6.716 15-15V18c0-8.284-6.716-15-15-15H30Z" fill="#009BFF"/></g><defs><filter id="a" x="0" y="0" width="246" height="96" filterUnits="userSpaceOnUse" color-interpolation-filters="sRGB"><feFlood flood-opacity="0" result="BackgroundImageFix"/><feColorMatrix in="SourceAlpha" values="0 0 0 0 0 0 0 0 0 0 0 0 0 0 0 0 0 0 127 0" result="hardAlpha"/><feOffset/><feGaussianBlur stdDeviation="1.5"/><feComposite in2="hardAlpha" operator="out"/><feColorMatrix values="0 0 0 0 0.779844 0 0 0 0 0.815365 0 0 0 0 0.904167 0 0 0 1 0"/><feBlend in2="BackgroundImageFix" result="effect1_dropShadow_48_1399"/><feBlend in="SourceGraphic" in2="effect1_dropShadow_48_1399" result="shape"/></filter></defs></svg>