<svg xmlns="http://www.w3.org/2000/svg" width="203" height="98" fill="none"><g filter="url(#a)"><path fill-rule="evenodd" clip-rule="evenodd" d="M174.914 3.594c-.352-.792-1.476-.792-1.828 0l-3.808 8.568a4 4 0 0 1-3.655 2.376H13c-5.523 0-10 4.477-10 10v60c0 5.523 4.477 10 10 10h177c5.523 0 10-4.477 10-10v-60c0-5.523-4.477-10-10-10h-7.623a4 4 0 0 1-3.655-2.376l-3.808-8.568Z" fill="#009BFF"/></g><defs><filter id="a" x="0" y="0" width="203" height="97.538" filterUnits="userSpaceOnUse" color-interpolation-filters="sRGB"><feFlood flood-opacity="0" result="BackgroundImageFix"/><feColorMatrix in="SourceAlpha" values="0 0 0 0 0 0 0 0 0 0 0 0 0 0 0 0 0 0 127 0" result="hardAlpha"/><feOffset/><feGaussianBlur stdDeviation="1.5"/><feComposite in2="hardAlpha" operator="out"/><feColorMatrix values="0 0 0 0 0.590243 0 0 0 0 0.648983 0 0 0 0 0.795833 0 0 0 1 0"/><feBlend in2="BackgroundImageFix" result="effect1_dropShadow_100_1084"/><feBlend in="SourceGraphic" in2="effect1_dropShadow_100_1084" result="shape"/></filter></defs></svg>