<svg xmlns="http://www.w3.org/2000/svg" width="249" height="91" fill="none"><g filter="url(#a)"><path fill-rule="evenodd" clip-rule="evenodd" d="M219 3c8.284 0 15 6.716 15 15v11.417a4 4 0 0 0 2.375 3.655l9.031 4.014c.792.352.792 1.476 0 1.828l-9.031 4.014A4 4 0 0 0 234 46.583V73c0 8.284-6.716 15-15 15H18C9.716 88 3 81.284 3 73V18C3 9.716 9.716 3 18 3h201Z" fill="#009BFF"/></g><defs><filter id="a" x="0" y="0" width="249" height="91" filterUnits="userSpaceOnUse" color-interpolation-filters="sRGB"><feFlood flood-opacity="0" result="BackgroundImageFix"/><feColorMatrix in="SourceAlpha" values="0 0 0 0 0 0 0 0 0 0 0 0 0 0 0 0 0 0 127 0" result="hardAlpha"/><feOffset/><feGaussianBlur stdDeviation="1.5"/><feComposite in2="hardAlpha" operator="out"/><feColorMatrix values="0 0 0 0 0.779844 0 0 0 0 0.815365 0 0 0 0 0.904167 0 0 0 1 0"/><feBlend in2="BackgroundImageFix" result="effect1_dropShadow_100_750"/><feBlend in="SourceGraphic" in2="effect1_dropShadow_100_750" result="shape"/></filter></defs></svg>