<svg width="19" height="19" fill="none" xmlns="http://www.w3.org/2000/svg"><g clip-path="url(#a)"><path d="M4.344 8.34a14.517 14.517 0 0 0 6.316 6.316l2.108-2.109a.953.953 0 0 1 .977-.23c1.074.355 2.233.547 3.422.547a.96.96 0 0 1 .958.958v3.345a.961.961 0 0 1-.958.958c-9 0-16.292-7.293-16.292-16.292a.96.96 0 0 1 .958-.958h3.354a.96.96 0 0 1 .959.958c0 1.198.192 2.348.546 3.422a.962.962 0 0 1-.24.977L4.345 8.34Z" fill="#009BFF"/></g><defs><clipPath id="a"><path fill="#fff" d="M0 0h19v19H0z"/></clipPath></defs></svg>