<svg width="1840" height="910" fill="none" xmlns="http://www.w3.org/2000/svg"><g clip-path="url(#a)"><path fill="#fff" d="M0 0h1840v910H0z"/><g opacity=".35" filter="url(#b)"><rect x="1295.83" y="-204" width="2056.78" height="2065.24" rx="41" transform="rotate(14.006 1295.83 -204)" fill="url(#c)"/></g><g opacity=".35" filter="url(#d)"><rect x="1533.06" y="-178.276" width="2056.78" height="2065.24" rx="41" transform="rotate(14.006 1533.06 -178.276)" fill="url(#e)"/></g><g opacity=".35" filter="url(#f)"><rect x="1752.49" y="-170.108" width="2056.78" height="2065.24" rx="41" transform="rotate(14.006 1752.49 -170.108)" fill="url(#g)"/></g></g><defs><linearGradient id="c" x1="1255.72" y1="800.719" x2="2219.03" y2="837.682" gradientUnits="userSpaceOnUse"><stop stop-color="#DDE2EE"/><stop offset=".205" stop-color="#fff"/></linearGradient><linearGradient id="e" x1="1492.95" y1="826.443" x2="2456.26" y2="863.406" gradientUnits="userSpaceOnUse"><stop stop-color="#DDE2EE"/><stop offset=".205" stop-color="#fff"/></linearGradient><linearGradient id="g" x1="1712.39" y1="834.611" x2="2675.69" y2="871.574" gradientUnits="userSpaceOnUse"><stop stop-color="#DDE2EE"/><stop offset=".205" stop-color="#fff"/></linearGradient><filter id="b" x="785.694" y="-214.306" width="2516.07" height="2522.23" filterUnits="userSpaceOnUse" color-interpolation-filters="sRGB"><feFlood flood-opacity="0" result="BackgroundImageFix"/><feBlend in="SourceGraphic" in2="BackgroundImageFix" result="shape"/><feGaussianBlur stdDeviation="9.5" result="effect1_foregroundBlur_100_2194"/></filter><filter id="d" x="1022.93" y="-188.582" width="2516.07" height="2522.23" filterUnits="userSpaceOnUse" color-interpolation-filters="sRGB"><feFlood flood-opacity="0" result="BackgroundImageFix"/><feBlend in="SourceGraphic" in2="BackgroundImageFix" result="shape"/><feGaussianBlur stdDeviation="9.5" result="effect1_foregroundBlur_100_2194"/></filter><filter id="f" x="1242.36" y="-180.414" width="2516.07" height="2522.23" filterUnits="userSpaceOnUse" color-interpolation-filters="sRGB"><feFlood flood-opacity="0" result="BackgroundImageFix"/><feBlend in="SourceGraphic" in2="BackgroundImageFix" result="shape"/><feGaussianBlur stdDeviation="9.5" result="effect1_foregroundBlur_100_2194"/></filter><clipPath id="a"><path fill="#fff" d="M0 0h1840v910H0z"/></clipPath></defs></svg>